PathFileType	4	(X/Y/Z)	Formatted/subject01/trials/walk2/markers.trc
DataRate	CameraRate	NumFrames	NumMarkers	Units	OrigDataRate	OrigDataStartFrame	OrigNumFrames
200.00000000000426	200.00000000000426	4	64	m	200.00000000000426	167	223
Frame#	Time	CLAV			C7			RACR			RASH			RPSH			RLEL			RMEL			RUA1			RUA2			RUA3			RFAsuperior			RFAradius			RFAulna			RASI			RPSI			RCAL			RTOE			RMT5			RTH1			RTH2			RTH3			RTB1			RTB2			RTB3			RLFC			RMFC			RLMAL			RMMAL			RHJC			RKJC			REJC			RAJC			RSJC			LACR			LASH			LPSH			LLEL			LMEL			LUA1			LUA2			LUA3			LFAsuperior			LFAradius			LFAulna			LASI			LPSI			LCAL			LTOE			LMT5			LTH1			LTH2			LTH3			LTB1			LTB2			LTB3			LLFC			LMFC			LLMAL			LMMAL			LHJC			LKJC			LEJC			LAJC			LSJC			
		X1	Y1	Z1	X2	Y2	Z2	X3	Y3	Z3	X4	Y4	Z4	X5	Y5	Z5	X6	Y6	Z6	X7	Y7	Z7	X8	Y8	Z8	X9	Y9	Z9	X10	Y10	Z10	X11	Y11	Z11	X12	Y12	Z12	X13	Y13	Z13	X14	Y14	Z14	X15	Y15	Z15	X16	Y16	Z16	X17	Y17	Z17	X18	Y18	Z18	X19	Y19	Z19	X20	Y20	Z20	X21	Y21	Z21	X22	Y22	Z22	X23	Y23	Z23	X24	Y24	Z24	X25	Y25	Z25	X26	Y26	Z26	X27	Y27	Z27	X28	Y28	Z28	X29	Y29	Z29	X30	Y30	Z30	X31	Y31	Z31	X32	Y32	Z32	X33	Y33	Z33	X34	Y34	Z34	X35	Y35	Z35	X36	Y36	Z36	X37	Y37	Z37	X38	Y38	Z38	X39	Y39	Z39	X40	Y40	Z40	X41	Y41	Z41	X42	Y42	Z42	X43	Y43	Z43	X44	Y44	Z44	X45	Y45	Z45	X46	Y46	Z46	X47	Y47	Z47	X48	Y48	Z48	X49	Y49	Z49	X50	Y50	Z50	X51	Y51	Z51	X52	Y52	Z52	X53	Y53	Z53	X54	Y54	Z54	X55	Y55	Z55	X56	Y56	Z56	X57	Y57	Z57	X58	Y58	Z58	X59	Y59	Z59	X60	Y60	Z60	X61	Y61	Z61	X62	Y62	Z62	X63	Y63	Z63	X64	Y64	Z64	

168	4.215	2.051360684005782	1.463747701322211	-0.5040651620758492	1.930304514068412	1.532813836914346	-0.5323936152888168	2.005442465639825	1.489197868658185	-0.3690960216479885	2.06210436886801	1.450028420625703	-0.34517398648058	1.964551776527304	1.469000569001356	-0.335294403409403	1.914421925741988	1.143606188652586	-0.2655591059822794	1.921879329176384	1.12963391233913	-0.3455120093219093	1.919830478238426	1.367905015044461	-0.2992030986800768	1.976096276737568	1.308131118914984	-0.2975728083419129	1.939193727635897	1.205868427026484	-0.2722872335573884	1.9911238296887	1.06434948180944	-0.2841179466072326	2.068474834588405	0.9097481184050987	-0.2868709515891005	2.005925145583235	0.8907421892357373	-0.2655552456500568	2.023612321528196	1.025967853655725	-0.404327754731404	1.859529397712801	1.068734806169608	-0.4829520077801346	1.644943107630551	0.312270833350546	-0.4103652125729663	1.759633978261324	0.1023004369058026	-0.4484089622148041	1.714499373763045	0.121555870191139	-0.3514491769691964	1.961075843908238	0.917105411677301	-0.3626847624233555	1.944183199547243	0.7627382492753162	-0.3637826455860192	2.019636298144479	0.6247779918854628	-0.3559498088702386	1.97232435994556	0.3981580454692271	-0.4098510264380069	1.888205820318928	0.42670922150252	-0.3412205625204316	1.812243051195376	0.2974552827997241	-0.4188207361622234	2.070508680496848	0.5435092316291698	-0.3487536241739344	2.077017066117501	0.5294535961820646	-0.4614626693626456	1.696263216444706	0.2531812038836272	-0.3534941225437468	1.702551489405572	0.2472710555016712	-0.4578133014751584	1.944284476985265	0.9206014813648657	-0.4604874373876074	2.079782907617292	0.5274982493806931	-0.4068721793156208	1.920518961825471	1.125421286657468	-0.3100103358833274	1.680831394495564	0.2529540198590949	-0.4138160000850599	2.016405856986006	1.458915923532278	-0.3405458957908871	1.96959159502579	1.498766530534184	-0.6977643970837684	2.023711348042765	1.454441002441023	-0.73274650230711	1.918354548314803	1.474930922686727	-0.7220765525902388	1.904758312903366	1.133148305729786	-0.7921889025612927	1.897925002484671	1.126247064987658	-0.7055595900669347	1.897173094665961	1.371571164503929	-0.7562288596462622	1.950131104788394	1.295564749410028	-0.7642287632511997	1.913275825777309	1.204548158837925	-0.7804863214939827	1.954345303338456	1.060746871944301	-0.7764527128336971	2.022355782724205	0.891992877821649	-0.7461723399120344	1.957255709511204	0.8702038013958014	-0.7669208982910807	2.035913195815364	1.039106716759714	-0.6538568856607752	1.865694559459176	1.079156491704262	-0.5951434879320658	1.885535585851976	0.05013411480192805	-0.5675915342592128	2.121565748417021	0.04579989276064957	-0.5434732636530114	2.082771051415915	0.004173296125191819	-0.6408532397116327	1.99821081873116	0.8957243419592094	-0.7099138610692728	1.940977922714845	0.7383341870805364	-0.6665990372185326	2.00990499164136	0.6139883065990922	-0.6527007300574492	2.072665731612175	0.3901842132662173	-0.5796523609109301	1.98657332419455	0.2909362698448293	-0.6405760048862612	2.025783595890368	0.1784320037779646	-0.5775590314007035	2.035866148560095	0.5270436734286477	-0.6624263004232114	2.042327950807532	0.5323816956940923	-0.5489670589813234	1.963714044235762	0.06084025004295834	-0.6315186627699911	1.973759733792289	0.0665085194054218	-0.5274806016220661	1.953541247334784	0.9295447319575258	-0.6196353212394462	2.042441598896824	0.5279596871091337	-0.6034506103942927	1.904318034466776	1.123194334299447	-0.743058685889651	1.953766319459155	0.05294373862114676	-0.5705628629598476	1.978012836160761	1.463328505347597	-0.7281184116174171	
169	4.220000000000001	2.057222868600633	1.464621207287456	-0.5039656187242048	1.936284401836015	1.533806131988808	-0.532506152665733	2.011030828393156	1.490007303660831	-0.3690778720769988	2.06760887345106	1.450774273520237	-0.3450617344488723	1.970050260511841	1.469817673897341	-0.3353806812265755	1.91802269810549	1.144841734746568	-0.2662351026516727	1.925841604885448	1.13086960165837	-0.3461534880053017	1.924679697779358	1.369127164455318	-0.2997442742503891	1.980650603509358	1.309085085624802	-0.2978408385924372	1.943126468750209	1.20698819548687	-0.272801251746656	1.993571154278301	1.064332080712772	-0.2840553043890294	2.068208094157746	0.9083936113950991	-0.2862597440454603	2.005098543863561	0.8904567402484618	-0.2656805901986989	2.029513423525348	1.027259234523683	-0.4047914538638477	1.86526933620443	1.069784798955484	-0.4832098664496661	1.658726563384457	0.3088295462769343	-0.4111466033025043	1.778474795587108	0.1016451531280253	-0.4488809138948097	1.732820599706374	0.1199117407995416	-0.3519730692050274	1.966981828996954	0.9183965537139837	-0.3628127868448487	1.952233732179648	0.7638107537975196	-0.3640423044091702	2.029594356733528	0.6269046122821703	-0.3563223159358873	1.985459333312537	0.3996776676223166	-0.4104133145403096	1.900946254786991	0.4269860844104046	-0.3417618114977252	1.826810297833481	0.2967409788584925	-0.4194714137274306	2.081589686928604	0.5463438041747372	-0.3491922676214527	2.088297208332209	0.5324754065468635	-0.46191283159456	1.711463342358135	0.2507860153171637	-0.354185092281029	1.717836117458439	0.2450513745517173	-0.4585089388189283	1.95014758127187	0.9217420905605609	-0.4606133554694946	2.09108817455827	0.5305138445338488	-0.4073239692999928	1.924271051080831	1.126647734103922	-0.3106615899650103	1.696037400865253	0.2503918320301176	-0.4145076137796748	2.021907541219683	1.459695154426892	-0.3405266450668873	1.975904723417586	1.499851017515154	-0.6978163749516633	2.030064971440572	1.455508075301972	-0.7327136356347023	1.924701669466215	1.476074947709245	-0.7222580981546217	1.912068343963451	1.134144555133396	-0.7927991459003633	1.905244516854298	1.127081686484826	-0.7061821134625014	1.903791959714434	1.372485317048158	-0.7564494212542531	1.956969678473008	1.296644986252723	-0.7645672338731477	1.920378717974345	1.205549372419265	-0.7809785196382213	1.962393220560186	1.062245596181104	-0.7771585510469966	2.032448799781624	0.8943291357746326	-0.7468845528404003	1.967568410737844	0.8717577590502569	-0.7674844103382653	2.041371533210797	1.039933190836865	-0.6543660609061523	1.871232860731765	1.079997805917362	-0.5954314322533559	1.885719544725361	0.0504604567853525	-0.5675099800283767	2.121779162805539	0.04579281334836843	-0.5437447972013055	2.082783667697282	0.004275983735552043	-0.6410914253925204	2.003496134893416	0.8960648929366416	-0.7100274741786683	1.944624842325131	0.7392933027024473	-0.6666652946768381	2.012263709947588	0.6142539402219129	-0.652660181943865	2.073719130229259	0.3901122477704447	-0.579659495433967	1.98729531384329	0.2911173402269923	-0.6405255740436318	2.026286201832075	0.1784823451365902	-0.5776060796733303	2.037337025423826	0.5270423248279832	-0.6623245813588352	2.043784913148922	0.5323736809402035	-0.5488642348740423	1.963845466071454	0.06107774735736365	-0.6315449946101176	1.97402948435631	0.06667243001430095	-0.5275163994009501	1.959121637242972	0.930389622668837	-0.6197937718869957	2.043826973118315	0.5279770427394017	-0.6033595654956724	1.911650830262677	1.124108848057216	-0.7436853611924936	1.953949533115008	0.05317953760274241	-0.5705809851869035	1.984363639209195	1.464428956208627	-0.7281785462527173	
170	4.225	2.063081059670139	1.465464866873511	-0.5038573236186225	1.942259848012106	1.534772137981836	-0.5325969410826354	2.016626684807711	1.490782415419315	-0.3690468067627768	2.073121816021746	1.451483720665697	-0.3449430011933027	1.975558801056001	1.470599979568383	-0.3354517628968922	1.921596246989292	1.146076127756914	-0.2668640247760985	1.929759992838148	1.132093872394178	-0.3467461498885768	1.929534454320404	1.370337795798151	-0.3002529947700798	1.985197510189693	1.310019225697516	-0.298082534418544	1.947040341308314	1.208100116308032	-0.2732764428505535	1.995963208193163	1.064341303189511	-0.2839459123124401	2.067885628195315	0.9071260036669628	-0.2856351899612983	2.004241480273646	0.8902554912376932	-0.2658145819077444	2.035410551909403	1.028527460621457	-0.4052572729352761	1.871000959075557	1.070809122391174	-0.4834604579394964	1.672639032317469	0.3050463764634645	-0.4120340955621049	1.797548147559567	0.1008652658739395	-0.4494062387155657	1.751346422135703	0.1180963015359217	-0.3525682494398175	1.972829625859918	0.9196508519618852	-0.3629287761729402	1.96018047222582	0.7648804379232806	-0.3643091600494617	2.039386777920634	0.6290291048597263	-0.3566715896864583	1.998553567408569	0.4011424524913715	-0.4109619474191938	1.913615057188299	0.4271309366650561	-0.3423231310595124	1.841464002667567	0.2958537309242383	-0.4201641902556079	2.092466148388554	0.5491743872517894	-0.3495863754716467	2.099423581272923	0.5355030291613776	-0.4623158611184074	1.726791167215068	0.2481289357517373	-0.3549601465577973	1.733289647215662	0.2425722263003341	-0.4592858675541343	1.95600569735685	0.9228586450406093	-0.4607357351781822	2.102214282901267	0.5335399560474376	-0.4077279929638318	1.927984746970334	1.127867231094922	-0.3112644695895946	1.711396386562112	0.2475517374666725	-0.4152891546894357	2.027418421661043	1.46043873214866	-0.3404968306133492	1.982199371957689	1.500915057018453	-0.6978504486672215	2.036396264710959	1.456555033313942	-0.732669019948058	1.931028208547954	1.477200592928843	-0.7224184825879346	1.919299074799001	1.135134689947611	-0.7933785710823409	1.912502461217945	1.127911158829532	-0.706772649343004	1.910371451085135	1.373391928769985	-0.7566375110573996	1.96375651448151	1.297711336552871	-0.7648841708099496	1.927414386111374	1.20654259253028	-0.7814416274154844	1.970382141655148	1.063763240112255	-0.7778373429398984	2.042543597958772	0.8967404478110664	-0.7475661041321332	1.977897760094126	0.8733616317174365	-0.7680021669495256	2.046812216368267	1.04073408397497	-0.6548764404848341	1.876756619325889	1.080812348181581	-0.5957117689175525	1.885904522882871	0.0507990921173639	-0.5674242873702918	2.121993257932975	0.04578545909555326	-0.5440215788821079	2.082791188474833	0.004381211958222766	-0.6413331808071929	2.008758352152944	0.8963799136408089	-0.7101378434191299	1.94824740145254	0.7402473480131859	-0.6667271765244935	2.01458426362367	0.6145241884565648	-0.6526165552114929	2.074740920168322	0.390057967689072	-0.5796690443150067	1.987991019618726	0.2913100833338626	-0.6404724765666118	2.026777044919177	0.1785473865715718	-0.5776551804032808	2.038761871802753	0.5270533364660097	-0.6622202492625804	2.045198884376773	0.5323785018464727	-0.5487589945482392	1.963972437511775	0.06132612549795557	-0.6315703809250331	1.974301727209227	0.06684590553309205	-0.5275521078843757	1.964688299291181	0.9312089224767339	-0.619948183665651	2.045166682546715	0.5280088888241772	-0.6032665843686721	1.918913541040352	1.125017394338566	-0.7442812669219255	1.954133513435296	0.05342405662704763	-0.5705976449528224	1.990692870350255	1.465510044796905	-0.7282228493681044	
171	4.23	2.068936055199408	1.466273319312709	-0.5037403126090449	1.948231727082851	1.53570661471768	-0.5326662748248892	2.022230832812029	1.491518387862167	-0.3690028962064477	2.078643944159636	1.452151927025578	-0.3448177079201464	1.981078134072592	1.47134286536803	-0.3355076361892231	1.925143610530082	1.147304829443901	-0.2674471503255898	1.933633770194209	1.13330313534187	-0.3472918362786944	1.934395970005369	1.371532174162334	-0.3007281648862921	1.989738035697023	1.310928793708201	-0.2982986323504664	1.950936499367464	1.209199506337001	-0.2737138922851163	1.99830262158548	1.064374208177086	-0.283793157070987	2.067515136272116	0.9059428200683961	-0.2850021378859994	2.00336252523148	0.8901343146318814	-0.2659605541691308	2.041303026424203	1.029765486649485	-0.405724663389434	1.876724130551121	1.071801368229948	-0.4837039104719395	1.68668943908451	0.3009370521356104	-0.413025335839302	1.816836858129831	0.09997699063756986	-0.4499792676269144	1.770063541410049	0.1161274633160697	-0.3532294703951451	1.978620426764435	0.9208608061284563	-0.3630350223632658	1.968023160312591	0.7659379639311314	-0.3645837373912899	2.049013177670402	0.6311395453166153	-0.356996941926671	2.011603976116514	0.4025488024970008	-0.4114942158174057	1.926213358810069	0.4271425916933849	-0.3429024747086471	1.85620258090914	0.2948012083053239	-0.4208958021987703	2.103137702462361	0.5519874479655669	-0.3499345729927679	2.110395107905886	0.5385237169220409	-0.4626701346012323	1.742247215713065	0.2452242689244763	-0.355815971189649	1.748912515364216	0.2398485065893136	-0.4601406484406577	1.961859245694174	0.9239447446366197	-0.460856737074127	2.113159973378979	0.5365631366528713	-0.4080826169926797	1.931660067523014	1.129075788712787	-0.3118207259260957	1.726909694093537	0.2444491503937337	-0.4161573440046094	2.03293924042436	1.4611419220921	-0.3404564048177954	1.988476402221496	1.501952773779009	-0.6978668608354769	2.042706039691081	1.457575786103191	-0.7326127552397137	1.937334964797073	1.47830199951304	-0.7225578777703165	1.926453409536059	1.136111954275433	-0.793928507308207	1.91969930026082	1.128729045321637	-0.7073327008186183	1.916913184992759	1.374284634342641	-0.7567952554513958	1.970493595002981	1.298757426042369	-0.7651800571035651	1.934385333634096	1.207521205671916	-0.781876916203489	1.978313719406347	1.065293748040679	-0.7784887199163418	2.052638510801041	0.8992227583162615	-0.7482151575394067	1.98824389145261	0.875012099693706	-0.768475045660299	2.052236796157458	1.041507092153311	-0.6553870670345843	1.882266678440307	1.081595845341178	-0.5959843511035874	1.88609034962314	0.05114939409928997	-0.5673354200897126	2.12220763845769	0.0457769234772547	-0.5443033430870601	2.082793688241464	0.004487956054822632	-0.6415783321519711	2.013999963648344	0.8966666824954455	-0.7102466890372204	1.951850082150604	0.7411930625592281	-0.6667865355847401	2.016872617681076	0.6147968502190673	-0.6525714328872773	2.075735988441769	0.3900190815333788	-0.579681712084654	1.988664360385252	0.2915132155814578	-0.640417807153566	2.027257872433649	0.1786254045251537	-0.5777067460903874	2.040147777423447	0.5270749644656356	-0.6621147721074211	2.046576534156181	0.532394463150498	-0.5486527834981382	1.96409541764123	0.06158433096050148	-0.6315953627920341	1.974576125547163	0.06702806794185795	-0.5275882293197609	1.970243073542213	0.9319992623885055	-0.6201004328281008	2.046467826864471	0.5280533775294614	-0.6031730704161484	1.926107697808535	1.125913398502362	-0.7448477215964316	1.954318083306478	0.05367656859829678	-0.5706134582703684	1.997001335955805	1.466565781169713	-0.7282514521373626	
